<svg xmlns="http://www.w3.org/2000/svg" viewBox="3884.922 3068.851 41.535 41.535">
  <defs>
    <style>
      .cls-1 {
        fill: #19d568;
      }
    </style>
  </defs>
  <path id="Path_235" data-name="Path 235" class="cls-1" d="M33.331,12.512a1.285,1.285,0,0,0-1.795.051L16.665,28.357,7.948,21.332a1.277,1.277,0,0,0-1.59,2L16,31.126a1.257,1.257,0,0,0,.82.308,1.284,1.284,0,0,0,.923-.41l15.64-16.665A1.35,1.35,0,0,0,33.331,12.512ZM20.767,0A20.767,20.767,0,1,0,41.535,20.767a22.567,22.567,0,0,0-.158-2.549A20.647,20.647,0,0,0,36.3,7.079,21.551,21.551,0,0,0,28.1,1.34,20,20,0,0,0,20.767,0Zm0,38.971a18.2,18.2,0,1,1,17.1-24.452,17.516,17.516,0,0,1,1.1,6.249A18.208,18.208,0,0,1,20.767,38.971Z" transform="translate(3884.922 3068.851)"/>
</svg>
