<svg xmlns="http://www.w3.org/2000/svg" viewBox="5387 -7430.234 49.541 49.541">
  <defs>
    <style>
      .cls-1 {
        fill: #19d568;
      }

      .cls-2 {
        fill: #030303;
        fill-rule: evenodd;
      }

      .cls-3, .cls-4 {
        stroke: none;
      }

      .cls-4 {
        fill: #95989a;
      }
    </style>
  </defs>
  <g id="Group_4038" data-name="Group 4038" transform="translate(5015 -8103)">
    <g id="Path_710" data-name="Path 710" class="cls-1" transform="translate(372 672.766)">
      <path class="cls-3" d="M 24.7704029083252 49.29080200195312 C 21.46006202697754 49.29080200195312 18.24886322021484 48.64252471923828 15.22603321075439 47.36397171020508 C 12.30619335174561 46.12898254394531 9.683853149414062 44.36093139648438 7.431862831115723 42.10894393920898 C 5.179872989654541 39.85695266723633 3.41182279586792 37.23461151123047 2.176832914352417 34.31477355957031 C 0.8982828855514526 31.29194259643555 0.250002920627594 28.08074378967285 0.250002920627594 24.7704029083252 C 0.250002920627594 21.46006202697754 0.8982828855514526 18.24886322021484 2.176832914352417 15.22603321075439 C 3.41182279586792 12.30619335174561 5.179872989654541 9.683853149414062 7.431862831115723 7.431862831115723 C 9.683853149414062 5.179872989654541 12.30619335174561 3.41182279586792 15.22603321075439 2.176832914352417 C 18.24886322021484 0.8982828855514526 21.46006202697754 0.250002920627594 24.7704029083252 0.250002920627594 C 28.08074378967285 0.250002920627594 31.29194259643555 0.8982828855514526 34.31477355957031 2.176832914352417 C 37.23461151123047 3.41182279586792 39.85695266723633 5.179872989654541 42.10894393920898 7.431862831115723 C 44.36093139648438 9.683853149414062 46.12898254394531 12.30619335174561 47.36397171020508 15.22603321075439 C 48.64252471923828 18.24886322021484 49.29080200195312 21.46006202697754 49.29080200195312 24.7704029083252 C 49.29080200195312 28.08074378967285 48.64252471923828 31.29194259643555 47.36397171020508 34.31477355957031 C 46.12898254394531 37.23461151123047 44.36093139648438 39.85695266723633 42.10894393920898 42.10894393920898 C 39.85695266723633 44.36093139648438 37.23461151123047 46.12898254394531 34.31477355957031 47.36397171020508 C 31.29194259643555 48.64252471923828 28.08074378967285 49.29080200195312 24.7704029083252 49.29080200195312 Z"/>
      <path class="cls-4" d="M 24.7704029083252 49.04080200195312 C 28.0471134185791 49.04080200195312 31.22553253173828 48.39916229248047 34.21738433837891 47.13372421264648 C 37.1074333190918 45.91133117675781 39.70305252075195 44.16128158569336 41.93217468261719 41.93217468261719 C 44.16128158569336 39.70305252075195 45.91133117675781 37.1074333190918 47.13372421264648 34.21738433837891 C 48.39916229248047 31.22553253173828 49.04080200195312 28.0471134185791 49.04080200195312 24.7704029083252 C 49.04080200195312 21.49369239807129 48.39916229248047 18.31527328491211 47.13372421264648 15.3234224319458 C 45.91133117675781 12.43337249755859 44.16128158569336 9.837753295898438 41.93217468261719 7.608633041381836 C 39.70305252075195 5.379522800445557 37.1074333190918 3.629472970962524 34.21738433837891 2.407082796096802 C 31.22553253173828 1.141642928123474 28.0471134185791 0.500002920627594 24.7704029083252 0.500002920627594 C 21.49369239807129 0.500002920627594 18.31527328491211 1.141642928123474 15.3234224319458 2.407082796096802 C 12.43337249755859 3.629472970962524 9.837753295898438 5.379522800445557 7.608633041381836 7.608633041381836 C 5.379522800445557 9.837753295898438 3.629472970962524 12.43337249755859 2.407082796096802 15.3234224319458 C 1.141642928123474 18.31527328491211 0.500002920627594 21.49369239807129 0.500002920627594 24.7704029083252 C 0.500002920627594 28.0471134185791 1.141642928123474 31.22553253173828 2.407082796096802 34.21738433837891 C 3.629472970962524 37.1074333190918 5.379522800445557 39.70305252075195 7.608633041381836 41.93217468261719 C 9.837753295898438 44.16128158569336 12.43337249755859 45.91133117675781 15.3234224319458 47.13372421264648 C 18.31527328491211 48.39916229248047 21.49369239807129 49.04080200195312 24.7704029083252 49.04080200195312 M 24.7704029083252 49.54080200195312 C 11.09008312225342 49.54080200195312 2.908325086536934e-06 38.45072174072266 2.908325086536934e-06 24.7704029083252 C 2.908325086536934e-06 11.09008312225342 11.09008312225342 2.908325086536934e-06 24.7704029083252 2.908325086536934e-06 C 38.45072174072266 2.908325086536934e-06 49.54080200195312 11.09008312225342 49.54080200195312 24.7704029083252 C 49.54080200195312 38.45072174072266 38.45072174072266 49.54080200195312 24.7704029083252 49.54080200195312 Z"/>
    </g>
    <path id="path" class="cls-2" d="M11.2,20.364l-5.85-5.85L3.4,16.464l7.8,7.8L27.914,7.55,25.964,5.6Z" transform="translate(381.6 683.649)"/>
  </g>
</svg>
