<svg xmlns="http://www.w3.org/2000/svg" viewBox="2765.298 696 82.299 128.599">
  <defs>
    <style>
      .cls-1 {
        fill: none;
      }
    </style>
  </defs>
  <g id="Group_3995" data-name="Group 3995" transform="translate(2765.295 696)">
    <rect id="Rectangle_1312" data-name="Rectangle 1312" class="cls-1" width="22.005" height="2.143" transform="translate(49.581 15.003)"/>
    <rect id="Rectangle_1313" data-name="Rectangle 1313" class="cls-1" width="11.002" height="2.143" transform="translate(49.581 19.433)"/>
    <rect id="Rectangle_1314" data-name="Rectangle 1314" class="cls-1" width="22.005" height="2.143" transform="translate(49.581 10.574)"/>
    <path id="Path_812" data-name="Path 812" d="M10.463,29.8a19.093,19.093,0,0,0,5.716-2.143,9.213,9.213,0,0,0-.429,2.858,9.788,9.788,0,1,0,2-5.858c-1.429-1.143-4.572-2.572-7.287.714,0,0-2.286,2.858-5.858.286A4.7,4.7,0,0,0,10.463,29.8Z" transform="translate(1.967 8.921)"/>
    <path id="Path_813" data-name="Path 813" d="M53.439,27.7a4.368,4.368,0,0,0-2.858-1,4.564,4.564,0,0,0-3.429,1.572L34.577,41.989c0-4.715-1.715-1.429-6.859-1.429H27.29c-5.144,0-6.859-3.429-6.859,1.429L7.857,28.558a4.564,4.564,0,0,0-3.429-1.572,4.348,4.348,0,0,0-3.286,7.287L17,52.706,12.859,89.285h4.43l-2.143,23a4.466,4.466,0,0,0,4,4.858h.429a4.479,4.479,0,0,0,4.43-4h0l3.144-21.576h.572l3.144,21.576a4.479,4.479,0,0,0,4.43,4h.429a4.466,4.466,0,0,0,4-4.858l-2.143-23h4.43L37.864,52.42,53.724,33.987A4.248,4.248,0,0,0,53.439,27.7Z" transform="translate(0 11.451)"/>
    <path id="Path_814" data-name="Path 814" d="M48.919,0C36.916,0,27.2,6.859,27.2,15.289c0,4.287,2.572,8.145,6.573,10.859a23.667,23.667,0,0,1-4.43,6,28.638,28.638,0,0,0,11-3,28.3,28.3,0,0,0,8.573,1.286c12,0,21.719-6.859,21.719-15.289S60.922,0,48.919,0Zm0,21.576h-11V19.433h11Zm11-4.287h-22V15.146h22v2.143Zm0-4.43h-22V10.574h22V12.86Z" transform="translate(11.664)"/>
  </g>
</svg>
