<svg xmlns="http://www.w3.org/2000/svg" viewBox="-3821 4183 23.652 45">
  <defs>
    <style>
      .cls-1 {
        fill: #f37021;
      }
    </style>
  </defs>
  <g id="Group_789" data-name="Group 789" transform="translate(-3821 4183)">
    <path id="Path_348" data-name="Path 348" class="cls-1" d="M20.06,11.323h-.088V6.9A6.9,6.9,0,0,0,13.07,0H10.264a6.9,6.9,0,0,0-6.9,6.9V11.34A3.526,3.526,0,0,0,0,14.818V36.9a3.549,3.549,0,0,0,3.592,3.5H20.06a3.549,3.549,0,0,0,3.592-3.5V14.818A3.541,3.541,0,0,0,20.06,11.323Zm-9.8-9.116H13.07a4.7,4.7,0,0,1,4.7,4.7v4.421h-4.51V6.072h.732a1.288,1.288,0,0,0,0-2.577H9.752a1.288,1.288,0,1,0,0,2.577H10.4v5.242H5.569V6.9A4.7,4.7,0,0,1,10.264,2.206Z"/>
    <path id="Path_349" data-name="Path 349" class="cls-1" d="M38.1,468.448a1.518,1.518,0,0,0,1.518,1.518H53.191a1.518,1.518,0,0,0,1.518-1.518V466.1H38.1Z" transform="translate(-34.738 -424.965)"/>
  </g>
</svg>
