<svg xmlns="http://www.w3.org/2000/svg" viewBox="5095 -7780 15.497 29.484">
  <defs>
    <style>
      .cls-1 {
        fill: #f37021;
      }
    </style>
  </defs>
  <g id="Group_888" data-name="Group 888" transform="translate(5095 -7780)">
    <path id="Path_348" data-name="Path 348" class="cls-1" d="M13.143,7.419h-.058v-2.9A4.521,4.521,0,0,0,8.564,0H6.725A4.521,4.521,0,0,0,2.2,4.522V7.43A2.311,2.311,0,0,0,0,9.709V24.176a2.325,2.325,0,0,0,2.353,2.3h10.79a2.325,2.325,0,0,0,2.353-2.3V9.709A2.32,2.32,0,0,0,13.143,7.419ZM6.725,1.446H8.564A3.082,3.082,0,0,1,11.64,4.522v2.9H8.685V3.978h.48a.844.844,0,0,0,0-1.688H6.39a.844.844,0,1,0,0,1.688h.422V7.413H3.649V4.522A3.079,3.079,0,0,1,6.725,1.446Z"/>
    <path id="Path_349" data-name="Path 349" class="cls-1" d="M38.1,467.638a.994.994,0,0,0,.995.994h8.893a.994.994,0,0,0,.995-.994V466.1H38.1Z" transform="translate(-35.897 -439.148)"/>
  </g>
</svg>
