<svg xmlns="http://www.w3.org/2000/svg" viewBox="-4279 3327 63.272 37">
  <defs>
    <style>
      .cls-1 {
        fill: #00164e;
      }
    </style>
  </defs>
  <path id="Path_281" data-name="Path 281" class="cls-1" d="M62.645,1.376l-.135-.124A8.451,8.451,0,0,0,57.67,0a15.957,15.957,0,0,0-7.908,2.076L38.143,10.017,15.481,14.834a1.61,1.61,0,0,0-.553.237,1.57,1.57,0,0,0-.666,1.354,1.528,1.528,0,0,0,1.388,1.444l9.577.959-9.34,6.385C13.1,23.937,10.461,22.7,8.036,21.534c-3.768-1.8-6.227-2.121-7.377-.97-1.207,1.2-.417,3.249.011,3.88l9,11.675a1.614,1.614,0,0,0,1.06.767,2.7,2.7,0,0,0,1.918-.733l2.279-1.568L27.6,28.427l-1.861,6.622a1.55,1.55,0,0,0,.846,1.816,1.577,1.577,0,0,0,1.523-.135,1.631,1.631,0,0,0,.417-.417L35.763,25.3,40.2,20.124,59.836,6.7c.3-.2.6-.395.891-.575a10.574,10.574,0,0,0,1.782-1.309C63.491,3.824,63.558,2.707,62.645,1.376ZM33.654,22.2a2.794,2.794,0,0,1-3.813-3.813L32.1,14.45a.192.192,0,0,1,.338,0l2.256,3.937A2.81,2.81,0,0,1,33.654,22.2Z" transform="translate(-4279.017 3327)"/>
</svg>
