<svg xmlns="http://www.w3.org/2000/svg" viewBox="-4071 3320 44.459 44">
  <defs>
    <style>
      .cls-1 {
        fill: #00164e;
      }
    </style>
  </defs>
  <g id="Group_653" data-name="Group 653" transform="translate(-4070.963 3319.9)">
    <path id="Path_274" data-name="Path 274" class="cls-1" d="M231.684,15.939a1.2,1.2,0,0,0,1.07-1.193V11.9a1.2,1.2,0,0,0-1.07-1.193l-1.754-.2a10.516,10.516,0,0,0-.991-2.517l1.1-1.386a1.207,1.207,0,0,0-.088-1.6l-2.017-2.008a1.207,1.207,0,0,0-1.6-.088L225.01,3.941a10.324,10.324,0,0,0-2.684-1.131l-.193-1.64A1.2,1.2,0,0,0,220.941.1h-2.85A1.2,1.2,0,0,0,216.9,1.17l-.184,1.622a10.579,10.579,0,0,0-2.622,1.1l-1.263-1a1.207,1.207,0,0,0-1.6.088l-2.008,2.008a1.207,1.207,0,0,0-.088,1.6L210.154,7.9a10.45,10.45,0,0,0-1.009,2.491l-1.675.193a1.2,1.2,0,0,0-1.07,1.193v2.85a1.2,1.2,0,0,0,1.07,1.193l1.7.193a10.4,10.4,0,0,0,1.052,2.517l-1.105,1.394a1.207,1.207,0,0,0,.088,1.6l2.008,2.008a1.207,1.207,0,0,0,1.6.088l1.412-1.123a10.814,10.814,0,0,0,2.561,1.035l.21,1.815a1.2,1.2,0,0,0,1.193,1.07h2.85a1.2,1.2,0,0,0,1.193-1.07l.219-1.886a10.766,10.766,0,0,0,2.385-1.009l1.465,1.158a1.207,1.207,0,0,0,1.6-.088l2.008-2.008a1.207,1.207,0,0,0,.088-1.6l-1.166-1.473a10.546,10.546,0,0,0,.965-2.3ZM219.52,8.449a4.71,4.71,0,1,1-4.71,4.71,4.716,4.716,0,0,1,4.71-4.71Z" transform="translate(-188.332)"/>
    <path id="Path_275" data-name="Path 275" class="cls-1" d="M3.044,157.037a1.171,1.171,0,0,0-.21,1.57l.658.982a9.21,9.21,0,0,0-1,1.965l-1.21.044a1.193,1.193,0,0,0-1.149,1.1l-.167,1.956a1.2,1.2,0,0,0,.956,1.272l1.193.246A8.759,8.759,0,0,0,2.8,168.3l-.877.921a1.2,1.2,0,0,0-.044,1.587l1.272,1.5a1.192,1.192,0,0,0,1.57.228l1.079-.719a8.542,8.542,0,0,0,2.017,1.017l.044,1.316a1.193,1.193,0,0,0,1.1,1.149l1.956.167a1.2,1.2,0,0,0,1.272-.956l.272-1.342a8.619,8.619,0,0,0,2.017-.658l.982.921a1.2,1.2,0,0,0,1.587.044l1.5-1.272a1.192,1.192,0,0,0,.228-1.57l-.745-1.131a8.94,8.94,0,0,0,.947-1.815l1.342-.044a1.193,1.193,0,0,0,1.149-1.1l.167-1.956a1.2,1.2,0,0,0-.956-1.272l-1.237-.254a8.912,8.912,0,0,0-.64-2.114l.868-.921a1.2,1.2,0,0,0,.044-1.587l-1.272-1.508a1.192,1.192,0,0,0-1.57-.228l-.991.658a8.7,8.7,0,0,0-2.114-1.114l-.035-1.166a1.193,1.193,0,0,0-1.1-1.149l-1.956-.167a1.2,1.2,0,0,0-1.272.956l-.237,1.14a8.473,8.473,0,0,0-2.21.719l-.833-.781a1.2,1.2,0,0,0-1.587-.044l-1.491,1.28Zm7.384,11.331a3.855,3.855,0,1,1,4.166-3.517,3.86,3.86,0,0,1-4.166,3.517Z" transform="translate(0 -140.186)"/>
    <path id="Path_276" data-name="Path 276" class="cls-1" d="M222.78,307.974a6.738,6.738,0,0,0-.684-1.666l.509-.658a1.2,1.2,0,0,0-.105-1.587l-.868-.851a1.193,1.193,0,0,0-1.587-.07l-.6.482a7.318,7.318,0,0,0-1.8-.737l-.1-.745a1.187,1.187,0,0,0-1.193-1.044l-1.21.018a1.2,1.2,0,0,0-1.175,1.07l-.079.745a6.948,6.948,0,0,0-1.736.754l-.579-.447a1.2,1.2,0,0,0-1.587.105l-.842.859a1.193,1.193,0,0,0-.07,1.587l.482.588a6.774,6.774,0,0,0-.649,1.666l-.772.1a1.187,1.187,0,0,0-1.044,1.193l.018,1.21a1.2,1.2,0,0,0,1.07,1.175l.789.079a6.723,6.723,0,0,0,.728,1.666l-.509.693a1.2,1.2,0,0,0,.114,1.587l.859.842a1.193,1.193,0,0,0,1.587.07l.667-.535a7.058,7.058,0,0,0,1.719.667l.105.868a1.187,1.187,0,0,0,1.193,1.044l1.21-.018a1.2,1.2,0,0,0,1.175-1.07l.1-.912a6.87,6.87,0,0,0,1.587-.693l.71.553a1.2,1.2,0,0,0,1.587-.114l.842-.859a1.193,1.193,0,0,0,.07-1.587l-.57-.7a6.8,6.8,0,0,0,.631-1.544l.886-.114a1.187,1.187,0,0,0,1.044-1.193l-.018-1.21a1.2,1.2,0,0,0-1.07-1.175Zm-6.955-1.28a3.136,3.136,0,1,1-3.1,3.175,3.141,3.141,0,0,1,3.1-3.175Z" transform="translate(-188.97 -274.6)"/>
  </g>
</svg>
